<svg xmlns="http://www.w3.org/2000/svg" viewBox="0 0 128 128" role="img" aria-label="XAUUSD Predictor">
  <defs>
    <linearGradient id="coin" x1="22" x2="106" y1="18" y2="110" gradientUnits="userSpaceOnUse">
      <stop offset="0" stop-color="#fff2a8"/>
      <stop offset="0.45" stop-color="#d4af37"/>
      <stop offset="1" stop-color="#8a6418"/>
    </linearGradient>
    <linearGradient id="shine" x1="35" x2="92" y1="24" y2="92" gradientUnits="userSpaceOnUse">
      <stop offset="0" stop-color="#ffffff" stop-opacity="0.85"/>
      <stop offset="1" stop-color="#ffffff" stop-opacity="0"/>
    </linearGradient>
  </defs>
  <rect width="128" height="128" rx="24" fill="#0a0e1a"/>
  <circle cx="64" cy="64" r="46" fill="url(#coin)"/>
  <circle cx="64" cy="64" r="37" fill="none" stroke="#ffe680" stroke-width="5"/>
  <path d="M35 44c10-15 35-21 56-8-17-3-36 1-50 14-4 4-7 4-6-6Z" fill="url(#shine)"/>
  <path d="M36 83 51 46h10l-6 15h18l6-15h10L74 83H64l6-15H52l-6 15H36Z" fill="#111827"/>
  <path d="M31 87h66" stroke="#111827" stroke-width="8" stroke-linecap="round"/>
  <path d="M31 87h66" stroke="#fff4b8" stroke-width="3" stroke-linecap="round"/>
  <text x="64" y="106" text-anchor="middle" font-family="Arial, Helvetica, sans-serif" font-size="18" font-weight="800" fill="#111827">XAU</text>
</svg>
